<svg width="32" height="32" viewBox="0 0 32 32" fill="none" xmlns="http://www.w3.org/2000/svg">
<path d="M20.5 28H7C6.73478 28 6.48043 27.8946 6.29289 27.7071C6.10536 27.5196 6 27.2652 6 27V9.5C6 9.23478 6.10536 8.98043 6.29289 8.79289C6.48043 8.60536 6.73478 8.5 7 8.5H16.5L21.5 13.5V27C21.5 27.2652 21.3946 27.5196 21.2071 27.7071C21.0196 27.8946 20.7652 28 20.5 28Z" stroke="#00A4EB" stroke-width="2.84444" stroke-linecap="round" stroke-linejoin="round"/>
<path d="M10.5 8.5V4.5C10.5 4.23478 10.6054 3.98043 10.7929 3.79289C10.9804 3.60536 11.2348 3.5 11.5 3.5H21.5L26.5 8.5V22C26.5 22.2652 26.3946 22.5196 26.2071 22.7071C26.0196 22.8946 25.7652 23 25.5 23H21.5" stroke="#00A4EB" stroke-width="2.84444" stroke-linecap="round" stroke-linejoin="round"/>
<path d="M11 18H16.5" stroke="#00A4EB" stroke-width="2.84444" stroke-linecap="round" stroke-linejoin="round"/>
<path d="M11 23H16.5" stroke="#00A4EB" stroke-width="2.84444" stroke-linecap="round" stroke-linejoin="round"/>
</svg>
