<svg width="7" height="6" viewBox="0 0 7 6" fill="none" xmlns="http://www.w3.org/2000/svg">
<path d="M3.3405 4.70794C3.79055 4.70794 4.22216 4.52916 4.54039 4.21092C4.85862 3.89269 5.0374 3.46108 5.0374 3.01103C5.0374 2.56099 4.85862 2.12937 4.54039 1.81114C4.22216 1.49291 3.79055 1.31413 3.3405 1.31413C2.89045 1.31413 2.45884 1.49291 2.14061 1.81114C1.82238 2.12937 1.6436 2.56099 1.6436 3.01103C1.6436 3.46108 1.82238 3.89269 2.14061 4.21092C2.45884 4.52916 2.89045 4.70794 3.3405 4.70794ZM3.3405 5.8392C2.59042 5.8392 1.87107 5.54124 1.34068 5.01085C0.810296 4.48047 0.512329 3.76111 0.512329 3.01103C0.512329 2.26095 0.810296 1.5416 1.34068 1.01121C1.87107 0.480828 2.59042 0.182861 3.3405 0.182861C4.09058 0.182861 4.80993 0.480828 5.34032 1.01121C5.8707 1.5416 6.16867 2.26095 6.16867 3.01103C6.16867 3.76111 5.8707 4.48047 5.34032 5.01085C4.80993 5.54124 4.09058 5.8392 3.3405 5.8392Z" fill="#00C48D" stroke="#00C48D" stroke-width="0.20885"/>
</svg>
