<svg width="20" height="20" viewBox="0 0 20 20" fill="none" xmlns="http://www.w3.org/2000/svg">
<path d="M18.4023 9.49611C17.7157 8.04962 16.8987 6.86994 15.9512 5.95704L14.9574 6.95079C15.7678 7.72521 16.4736 8.73829 17.084 10C15.459 13.3633 13.1523 14.961 9.99999 14.961C9.05377 14.961 8.18222 14.8152 7.38534 14.5238L6.30858 15.6006C7.41536 16.1117 8.64582 16.3672 9.99999 16.3672C13.7539 16.3672 16.5547 14.4121 18.4023 10.502C18.4766 10.3447 18.5151 10.173 18.5151 9.99904C18.5151 9.82512 18.4766 9.65336 18.4023 9.49611ZM17.1607 3.23361L16.3281 2.40001C16.3136 2.38549 16.2964 2.37396 16.2774 2.3661C16.2584 2.35823 16.2381 2.35419 16.2176 2.35419C16.197 2.35419 16.1767 2.35823 16.1577 2.3661C16.1388 2.37396 16.1215 2.38549 16.107 2.40001L13.9709 4.53517C12.7932 3.93361 11.4695 3.63283 9.99999 3.63283C6.24608 3.63283 3.4453 5.5879 1.59765 9.49806C1.52338 9.65532 1.48486 9.82708 1.48486 10.001C1.48486 10.1749 1.52338 10.3467 1.59765 10.5039C2.3358 12.0586 3.22447 13.3048 4.26366 14.2424L2.19687 16.3086C2.16759 16.3379 2.15114 16.3776 2.15114 16.4191C2.15114 16.4605 2.16759 16.5002 2.19687 16.5295L3.03065 17.3633C3.05995 17.3926 3.09968 17.409 3.1411 17.409C3.18253 17.409 3.22225 17.3926 3.25155 17.3633L17.1607 3.4547C17.1753 3.44019 17.1868 3.42296 17.1946 3.40399C17.2025 3.38502 17.2066 3.36469 17.2066 3.34415C17.2066 3.32362 17.2025 3.30329 17.1946 3.28432C17.1868 3.26535 17.1753 3.24812 17.1607 3.23361ZM2.91601 10C4.54296 6.63673 6.8496 5.03908 9.99999 5.03908C11.0652 5.03908 12.0338 5.22189 12.9125 5.59357L11.5394 6.96661C10.8892 6.61967 10.1446 6.49091 9.41563 6.59932C8.68662 6.70774 8.01176 7.04759 7.4906 7.56875C6.96944 8.0899 6.62959 8.76476 6.52117 9.49377C6.41276 10.2228 6.54152 10.9673 6.88847 11.6176L5.25917 13.2469C4.35741 12.451 3.58007 11.3727 2.91601 10ZM7.73437 10C7.73471 9.65561 7.81629 9.31614 7.97247 9.00919C8.12866 8.70223 8.35505 8.43645 8.63326 8.23343C8.91146 8.03041 9.23363 7.89588 9.5736 7.84076C9.91356 7.78564 10.2617 7.8115 10.5898 7.91622L7.83808 10.668C7.7691 10.452 7.73412 10.2267 7.73437 10Z" fill="#00C48D"/>
<path d="M9.92178 12.1875C9.8542 12.1875 9.7876 12.1844 9.72158 12.1783L8.68994 13.21C9.31043 13.4476 9.98647 13.5004 10.6363 13.362C11.2862 13.2236 11.882 12.8999 12.3519 12.4301C12.8217 11.9603 13.1454 11.3644 13.2838 10.7146C13.4222 10.0647 13.3694 9.38868 13.1317 8.76819L12.1001 9.79983C12.1062 9.86584 12.1093 9.93245 12.1093 10C12.1094 10.2873 12.053 10.5719 11.9431 10.8373C11.8332 11.1028 11.6721 11.344 11.4689 11.5472C11.2658 11.7503 11.0245 11.9114 10.7591 12.0213C10.4936 12.1312 10.2091 12.1877 9.92178 12.1875Z" fill="#00C48D"/>
</svg>
