<svg width="13" height="9" viewBox="0 0 13 9" fill="none" xmlns="http://www.w3.org/2000/svg">
<path d="M6.5 7.9993C6.29555 7.99976 6.09742 7.91838 5.94 7.7693L0.689997 2.7693C0.511308 2.59956 0.398936 2.35565 0.377604 2.09122C0.356272 1.8268 0.427726 1.56352 0.576247 1.3593C0.724768 1.15508 0.938191 1.02666 1.16956 1.00228C1.40094 0.977899 1.63131 1.05956 1.81 1.2293L6.5 5.7093L11.19 1.3893C11.2795 1.30623 11.3825 1.2442 11.493 1.20677C11.6036 1.16934 11.7195 1.15724 11.8342 1.17118C11.9488 1.18512 12.0599 1.22482 12.1611 1.28799C12.2623 1.35117 12.3515 1.43657 12.4237 1.5393C12.5039 1.64212 12.5646 1.76275 12.602 1.89362C12.6395 2.02449 12.6528 2.16279 12.6413 2.29986C12.6298 2.43692 12.5937 2.56979 12.5352 2.69015C12.4767 2.81051 12.397 2.91575 12.3012 2.9993L7.05125 7.8293C6.8893 7.95481 6.69521 8.01467 6.5 7.9993Z" fill="#666666"/>
</svg>
