<svg width="30" height="30" viewBox="0 0 30 30" fill="none" xmlns="http://www.w3.org/2000/svg">
<g clip-path="url(#clip0_8_562)">
<path d="M15.0003 0.599991C7.04731 0.599991 0.600311 7.04699 0.600311 15C0.600311 22.953 7.04731 29.4 15.0003 29.4C22.9533 29.4 29.4003 22.953 29.4003 15C29.4003 7.04699 22.9533 0.599991 15.0003 0.599991ZM11.4753 20.9685H8.55931V11.5845H11.4753V20.9685ZM9.99931 10.4325C9.07831 10.4325 8.48281 9.77999 8.48281 8.97299C8.48281 8.14949 9.09631 7.51649 10.0368 7.51649C10.9773 7.51649 11.5533 8.14949 11.5713 8.97299C11.5713 9.77999 10.9773 10.4325 9.99931 10.4325ZM22.1253 20.9685H19.2093V15.768C19.2093 14.5575 18.7863 13.7355 17.7318 13.7355C16.9263 13.7355 16.4478 14.292 16.2363 14.8275C16.1583 15.018 16.1388 15.288 16.1388 15.5565V20.967H13.2213V14.577C13.2213 13.4055 13.1838 12.426 13.1448 11.583H15.6783L15.8118 12.8865H15.8703C16.2543 12.2745 17.1948 11.3715 18.7683 11.3715C20.6868 11.3715 22.1253 12.657 22.1253 15.42V20.9685V20.9685Z" fill="#00C48D"/>
</g>
<defs>
<clipPath id="clip0_8_562">
<rect width="30" height="30" fill="white"/>
</clipPath>
</defs>
</svg>
