<svg width="20" height="21" viewBox="0 0 20 21" fill="none" xmlns="http://www.w3.org/2000/svg">
<path d="M19.0988 9.86446C18.9879 9.60946 16.3096 3.52612 9.99958 3.52612C3.68958 3.52612 1.01125 9.60946 0.900416 9.86446C0.855941 9.96821 0.833008 10.0799 0.833008 10.1928C0.833008 10.3057 0.855941 10.4174 0.900416 10.5211C1.01125 10.7761 3.68958 16.8595 9.99958 16.8595C16.3096 16.8595 18.9879 10.7761 19.0988 10.5211C19.1432 10.4174 19.1662 10.3057 19.1662 10.1928C19.1662 10.0799 19.1432 9.96821 19.0988 9.86446ZM9.99958 15.1928C5.49958 15.1928 3.19375 11.3686 2.59125 10.1928C3.19542 9.03779 5.53958 5.19279 9.99958 5.19279C14.4946 5.19279 16.8038 9.01446 17.4079 10.1928C16.8029 11.3478 14.4596 15.1928 9.99958 15.1928Z" fill="#00C48D"/>
<path d="M10.0003 6.85962C9.34106 6.85962 8.69659 7.05512 8.14843 7.42139C7.60026 7.78766 7.17302 8.30825 6.92073 8.91734C6.66844 9.52643 6.60243 10.1967 6.73104 10.8433C6.85966 11.4899 7.17713 12.0838 7.6433 12.55C8.10948 13.0162 8.70342 13.3336 9.35003 13.4622C9.99663 13.5909 10.6669 13.5248 11.2759 13.2726C11.885 13.0203 12.4056 12.593 12.7719 12.0449C13.1382 11.4967 13.3337 10.8522 13.3337 10.193C13.3337 9.3089 12.9825 8.46105 12.3574 7.83593C11.7322 7.21081 10.8844 6.85962 10.0003 6.85962ZM10.0003 11.8596C9.67069 11.8596 9.34846 11.7619 9.07438 11.5787C8.8003 11.3956 8.58667 11.1353 8.46053 10.8308C8.33438 10.5262 8.30138 10.1911 8.36569 9.8678C8.42999 9.5445 8.58873 9.24753 8.82182 9.01444C9.0549 8.78135 9.35188 8.62262 9.67518 8.55831C9.99848 8.494 10.3336 8.52701 10.6381 8.65315C10.9427 8.7793 11.203 8.99292 11.3861 9.267C11.5692 9.54108 11.667 9.86332 11.667 10.193C11.667 10.635 11.4914 11.0589 11.1788 11.3715C10.8663 11.684 10.4424 11.8596 10.0003 11.8596Z" fill="#00C48D"/>
</svg>
