<svg width="30" height="30" viewBox="0 0 30 30" fill="none" xmlns="http://www.w3.org/2000/svg">
<g clip-path="url(#clip0_8_570)">
<path d="M15.0001 0.600006C7.04709 0.600006 0.60009 7.04701 0.60009 15C0.60009 22.953 7.04709 29.4 15.0001 29.4C22.9531 29.4 29.4001 22.953 29.4001 15C29.4001 7.04701 22.9531 0.600006 15.0001 0.600006ZM20.8576 12.396C20.8636 12.519 20.8651 12.642 20.8651 12.762C20.8651 16.512 18.0136 20.8335 12.7966 20.8335C11.255 20.8361 9.74554 20.3933 8.44959 19.5585C8.67009 19.5855 8.89659 19.596 9.12609 19.596C10.4551 19.596 11.6776 19.1445 12.6481 18.3825C12.0567 18.3709 11.4836 18.1751 11.0088 17.8223C10.5339 17.4695 10.181 16.9774 9.99909 16.4145C10.4238 16.4953 10.8614 16.4783 11.2786 16.365C10.6367 16.2352 10.0594 15.8874 9.64465 15.3805C9.22992 14.8736 9.00325 14.2389 9.00309 13.584V13.5495C9.38559 13.761 9.82359 13.89 10.2886 13.905C9.68679 13.5044 9.26077 12.889 9.09766 12.1847C8.93455 11.4804 9.04667 10.7404 9.41109 10.116C10.1235 10.992 11.012 11.7086 12.0189 12.2195C13.0259 12.7303 14.1289 13.024 15.2566 13.0815C15.1132 12.473 15.1749 11.8341 15.4321 11.2643C15.6893 10.6944 16.1275 10.2255 16.6787 9.9304C17.2299 9.63531 17.8631 9.53059 18.4799 9.63251C19.0968 9.73444 19.6626 10.0373 20.0896 10.494C20.7243 10.3684 21.3331 10.1356 21.8896 9.80551C21.678 10.4627 21.2351 11.0208 20.6431 11.376C21.2054 11.3083 21.7544 11.1571 22.2721 10.9275C21.8918 11.4973 21.4128 11.9947 20.8576 12.396Z" fill="#00C48D"/>
</g>
<defs>
<clipPath id="clip0_8_570">
<rect width="30" height="30" fill="white"/>
</clipPath>
</defs>
</svg>
