<svg width="30" height="30" viewBox="0 0 30 30" fill="none" xmlns="http://www.w3.org/2000/svg">
<circle cx="15" cy="15" r="15" fill="#00C48D"/>
<path d="M14.9999 12.2781C13.5012 12.2781 12.2781 13.5012 12.2781 15C12.2781 16.4987 13.5012 17.7218 14.9999 17.7218C16.4987 17.7218 17.7218 16.4987 17.7218 15C17.7218 13.5012 16.4987 12.2781 14.9999 12.2781ZM23.1635 15C23.1635 13.8728 23.1737 12.7559 23.1104 11.6308C23.0471 10.324 22.749 9.16421 21.7933 8.2086C20.8357 7.25095 19.6779 6.95487 18.3711 6.89157C17.244 6.82827 16.1271 6.83848 15.002 6.83848C13.8748 6.83848 12.7579 6.82827 11.6328 6.89157C10.326 6.95487 9.16621 7.25299 8.2106 8.2086C7.25295 9.16625 6.95687 10.324 6.89357 11.6308C6.83027 12.758 6.84048 13.8749 6.84048 15C6.84048 16.1251 6.83027 17.244 6.89357 18.3691C6.95687 19.6759 7.25499 20.8357 8.2106 21.7913C9.16825 22.749 10.326 23.0451 11.6328 23.1084C12.76 23.1717 13.8769 23.1615 15.002 23.1615C16.1291 23.1615 17.246 23.1717 18.3711 23.1084C19.6779 23.0451 20.8377 22.747 21.7933 21.7913C22.751 20.8337 23.0471 19.6759 23.1104 18.3691C23.1757 17.244 23.1635 16.1271 23.1635 15ZM14.9999 19.1879C12.6824 19.1879 10.812 17.3175 10.812 15C10.812 12.6824 12.6824 10.812 14.9999 10.812C17.3175 10.812 19.1879 12.6824 19.1879 15C19.1879 17.3175 17.3175 19.1879 14.9999 19.1879ZM19.3594 11.6186C18.8183 11.6186 18.3813 11.1816 18.3813 10.6405C18.3813 10.0994 18.8183 9.66244 19.3594 9.66244C19.9005 9.66244 20.3375 10.0994 20.3375 10.6405C20.3376 10.769 20.3124 10.8963 20.2633 11.015C20.2142 11.1337 20.1422 11.2416 20.0514 11.3325C19.9605 11.4233 19.8526 11.4954 19.7339 11.5445C19.6151 11.5936 19.4879 11.6187 19.3594 11.6186Z" fill="white"/>
</svg>
