<svg width="15" height="15" viewBox="0 0 15 15" fill="none" xmlns="http://www.w3.org/2000/svg">
<path d="M7.35393 13.7887C5.64735 13.7887 4.01066 13.1108 2.80392 11.9041C1.59718 10.6973 0.919242 9.06064 0.919242 7.35405C0.919242 5.64746 1.59718 4.01077 2.80392 2.80404C4.01066 1.5973 5.64735 0.919358 7.35393 0.919358C9.06052 0.919358 10.6972 1.5973 11.9039 2.80404C13.1107 4.01077 13.7886 5.64746 13.7886 7.35405C13.7886 9.06064 13.1107 10.6973 11.9039 11.9041C10.6972 13.1108 9.06052 13.7887 7.35393 13.7887ZM7.35393 14.708C9.30432 14.708 11.1748 13.9332 12.554 12.5541C13.9331 11.1749 14.7079 9.30443 14.7079 7.35405C14.7079 5.40367 13.9331 3.53316 12.554 2.15403C11.1748 0.774904 9.30432 0.000116348 7.35393 0.000116348C5.40355 0.000116348 3.53305 0.774904 2.15392 2.15403C0.774787 3.53316 0 5.40367 0 7.35405C0 9.30443 0.774787 11.1749 2.15392 12.5541C3.53305 13.9332 5.40355 14.708 7.35393 14.708Z" fill="#00C48D"/>
<path d="M8.20881 6.05623L6.10375 6.32005L6.02837 6.66936L6.44203 6.74566C6.71229 6.81001 6.7656 6.90745 6.70677 7.17678L6.02837 10.3647C5.85004 11.1893 6.12489 11.5772 6.77112 11.5772C7.2721 11.5772 7.85398 11.3455 8.11781 11.0275L8.1987 10.6451C8.01485 10.8069 7.74643 10.8712 7.5681 10.8712C7.31531 10.8712 7.22338 10.6938 7.28865 10.3813L8.20881 6.05623ZM8.27316 4.13685C8.27316 4.38065 8.17631 4.61446 8.00392 4.78685C7.83153 4.95925 7.59771 5.05609 7.35392 5.05609C7.11012 5.05609 6.87631 4.95925 6.70391 4.78685C6.53152 4.61446 6.43467 4.38065 6.43467 4.13685C6.43467 3.89305 6.53152 3.65924 6.70391 3.48685C6.87631 3.31446 7.11012 3.21761 7.35392 3.21761C7.59771 3.21761 7.83153 3.31446 8.00392 3.48685C8.17631 3.65924 8.27316 3.89305 8.27316 4.13685Z" fill="#00C48D"/>
</svg>
