<svg width="35" height="34" viewBox="0 0 35 34" fill="none" xmlns="http://www.w3.org/2000/svg">
<circle cx="17.3407" cy="16.708" r="16.708" fill="white"/>
<path d="M22.4312 15.011C22.4312 13.6609 21.8949 12.3661 20.9402 11.4114C19.9855 10.4567 18.6906 9.92033 17.3405 9.92033C15.9904 9.92033 14.6955 10.4567 13.7408 11.4114C12.7861 12.3661 12.2498 13.6609 12.2498 15.011C12.2498 17.0994 13.9207 19.8212 17.3405 23.0815C20.7603 19.8212 22.4312 17.0994 22.4312 15.011ZM17.3405 24.6268C13.1921 20.8563 11.1185 17.6503 11.1185 15.011C11.1185 13.3609 11.7741 11.7783 12.9409 10.6114C14.1078 9.44459 15.6903 8.78906 17.3405 8.78906C18.9907 8.78906 20.5733 9.44459 21.7401 10.6114C22.907 11.7783 23.5625 13.3609 23.5625 15.011C23.5625 17.6503 21.4889 20.8563 17.3405 24.6268Z" fill="#00C48D" stroke="#00C48D" stroke-width="0.20885"/>
<path d="M17.3405 16.7079C17.7905 16.7079 18.2222 16.5292 18.5404 16.2109C18.8586 15.8927 19.0374 15.4611 19.0374 15.011C19.0374 14.561 18.8586 14.1294 18.5404 13.8111C18.2222 13.4929 17.7905 13.3141 17.3405 13.3141C16.8905 13.3141 16.4588 13.4929 16.1406 13.8111C15.8224 14.1294 15.6436 14.561 15.6436 15.011C15.6436 15.4611 15.8224 15.8927 16.1406 16.2109C16.4588 16.5292 16.8905 16.7079 17.3405 16.7079V16.7079ZM17.3405 17.8392C16.5904 17.8392 15.8711 17.5412 15.3407 17.0109C14.8103 16.4805 14.5123 15.7611 14.5123 15.011C14.5123 14.261 14.8103 13.5416 15.3407 13.0112C15.8711 12.4808 16.5904 12.1829 17.3405 12.1829C18.0906 12.1829 18.8099 12.4808 19.3403 13.0112C19.8707 13.5416 20.1687 14.261 20.1687 15.011C20.1687 15.7611 19.8707 16.4805 19.3403 17.0109C18.8099 17.5412 18.0906 17.8392 17.3405 17.8392Z" fill="#00C48D" stroke="#00C48D" stroke-width="0.20885"/>
</svg>
