<svg width="18" height="14" viewBox="0 0 18 14" fill="none" xmlns="http://www.w3.org/2000/svg">
<path d="M16.4995 0.686218H1.49951C1.16799 0.686218 0.850049 0.817914 0.615628 1.05233C0.381208 1.28676 0.249512 1.6047 0.249512 1.93622V11.9362C0.249512 12.2677 0.381208 12.5857 0.615628 12.8201C0.850049 13.0545 1.16799 13.1862 1.49951 13.1862H16.4995C16.831 13.1862 17.149 13.0545 17.3834 12.8201C17.6178 12.5857 17.7495 12.2677 17.7495 11.9362V1.93622C17.7495 1.6047 17.6178 1.28676 17.3834 1.05233C17.149 0.817914 16.831 0.686218 16.4995 0.686218ZM15.1245 1.93622L8.99951 6.17372L2.87451 1.93622H15.1245ZM1.49951 11.9362V2.50497L8.64326 7.44872C8.74788 7.5213 8.87218 7.56019 8.99951 7.56019C9.12684 7.56019 9.25114 7.5213 9.35576 7.44872L16.4995 2.50497V11.9362H1.49951Z" fill="#00C48D"/>
</svg>
