<svg width="18" height="18" viewBox="0 0 18 18" fill="none" xmlns="http://www.w3.org/2000/svg">
<path d="M9.87899 15.0792C11.5682 15.9293 13.557 16.5423 15.8897 16.8046C16.4558 16.8683 16.9376 16.4147 16.9376 15.845V13.722C16.9376 13.2694 16.6296 12.8749 16.1905 12.7651L13.5342 12.1011C13.1981 12.0171 12.8426 12.1155 12.5976 12.3605L9.87899 15.0792ZM9.87899 15.0792C6.80609 13.5326 4.72463 11.2013 3.36763 8.76897M3.36763 8.76897C2.07478 6.45164 1.43952 4.04265 1.23101 2.13333C1.17047 1.57904 1.61934 1.11664 2.17692 1.11664H4.29377C4.76391 1.11664 5.16869 1.44848 5.26089 1.90949L5.98507 5.53041C6.04975 5.85377 5.94853 6.18806 5.71535 6.42124L3.36763 8.76897Z" stroke="#00C48D" stroke-width="1.97255"/>
</svg>
