<svg width="34" height="34" viewBox="0 0 34 34" fill="none" xmlns="http://www.w3.org/2000/svg">
<circle cx="16.9796" cy="16.9796" r="16.9796" fill="white"/>
<path d="M12.9364 11.756C12.9824 12.4382 13.0974 13.105 13.2813 13.7411L12.3616 14.6608C12.0473 13.7411 11.8481 12.7677 11.7791 11.756H12.9364ZM20.4935 20.9686C21.145 21.1526 21.8118 21.2675 22.4862 21.3135V22.4555C21.4745 22.3865 20.5012 22.1873 19.5738 21.8807L20.4935 20.9686ZM13.6722 10.2231H10.9896C10.5681 10.2231 10.2232 10.568 10.2232 10.9896C10.2232 18.1865 16.0558 24.0191 23.2527 24.0191C23.6742 24.0191 24.0191 23.6742 24.0191 23.2526V20.5777C24.0191 20.1562 23.6742 19.8113 23.2527 19.8113C22.3023 19.8113 21.3749 19.658 20.5165 19.3744C20.4404 19.3468 20.3598 19.3338 20.2789 19.3361C20.0796 19.3361 19.888 19.4128 19.7347 19.5584L18.0486 21.2445C15.876 20.1335 14.1088 18.3662 12.9977 16.1937L14.6839 14.5075C14.8985 14.2929 14.9598 13.994 14.8755 13.7258C14.5847 12.8429 14.4373 11.9191 14.4386 10.9896C14.4386 10.568 14.0937 10.2231 13.6722 10.2231Z" fill="#00C48D"/>
</svg>
