<svg width="83" height="83" viewBox="0 0 83 83" fill="none" xmlns="http://www.w3.org/2000/svg">
<circle cx="41.5" cy="41.5" r="41.5" fill="white"/>
<path d="M70.4487 41.0547C70.4487 48.7016 67.4266 56.0354 62.0472 61.4426C56.6678 66.8498 49.3717 69.8876 41.7641 69.8876C34.1565 69.8876 26.8605 66.8498 21.4811 61.4426C16.1017 56.0354 13.0796 48.7016 13.0796 41.0547C13.0796 33.4077 16.1017 26.0739 21.4811 20.6667C26.8605 15.2595 34.1565 12.2217 41.7641 12.2217C49.3717 12.2217 56.6678 15.2595 62.0472 20.6667C67.4266 26.0739 70.4487 33.4077 70.4487 41.0547V41.0547ZM37.4256 30.5775C37.1575 30.3856 36.8421 30.2717 36.5139 30.248C36.1856 30.2244 35.8572 30.292 35.5647 30.4435C35.2722 30.595 35.0268 30.8245 34.8554 31.1069C34.684 31.3892 34.5932 31.7136 34.593 32.0444V50.0649C34.5932 50.3957 34.684 50.7201 34.8554 51.0024C35.0268 51.2848 35.2722 51.5143 35.5647 51.6658C35.8572 51.8173 36.1856 51.8849 36.5139 51.8613C36.8421 51.8376 37.1575 51.7237 37.4256 51.5318L49.9751 42.5215C50.2075 42.3548 50.3969 42.1348 50.5276 41.8796C50.6583 41.6245 50.7265 41.3416 50.7265 41.0547C50.7265 40.7677 50.6583 40.4848 50.5276 40.2297C50.3969 39.9746 50.2075 39.7545 49.9751 39.5878L37.4256 30.5775V30.5775Z" fill="#00C48D"/>
</svg>
