<svg width="58" height="58" viewBox="0 0 58 58" fill="none" xmlns="http://www.w3.org/2000/svg">
<path d="M57.4487 29.0547C57.4487 36.7016 54.4266 44.0354 49.0472 49.4426C43.6678 54.8498 36.3717 57.8876 28.7641 57.8876C21.1565 57.8876 13.8605 54.8498 8.4811 49.4426C3.1017 44.0354 0.0795898 36.7016 0.0795898 29.0547C0.0795898 21.4077 3.1017 14.0739 8.4811 8.66671C13.8605 3.25949 21.1565 0.221741 28.7641 0.221741C36.3717 0.221741 43.6678 3.25949 49.0472 8.66671C54.4266 14.0739 57.4487 21.4077 57.4487 29.0547ZM24.4256 18.5775C24.1575 18.3856 23.8421 18.2717 23.5139 18.248C23.1856 18.2244 22.8572 18.292 22.5647 18.4435C22.2722 18.595 22.0268 18.8245 21.8554 19.1069C21.684 19.3892 21.5932 19.7136 21.593 20.0444V38.0649C21.5932 38.3957 21.684 38.7201 21.8554 39.0024C22.0268 39.2848 22.2722 39.5143 22.5647 39.6658C22.8572 39.8173 23.1856 39.8849 23.5139 39.8613C23.8421 39.8376 24.1575 39.7237 24.4256 39.5318L36.9751 30.5215C37.2075 30.3548 37.3969 30.1348 37.5276 29.8796C37.6583 29.6245 37.7265 29.3416 37.7265 29.0547C37.7265 28.7677 37.6583 28.4848 37.5276 28.2297C37.3969 27.9746 37.2075 27.7545 36.9751 27.5878L24.4256 18.5775Z" fill="#00C48D"/>
</svg>
