<svg width="43" height="43" viewBox="0 0 43 43" fill="none" xmlns="http://www.w3.org/2000/svg">
<circle cx="21.3009" cy="21.8356" r="18.7192" fill="#00C48D" stroke="white" stroke-width="4.67747"/>
<path d="M27.8534 23.0803V24.5808C27.8534 26.9658 26.4316 28.3876 24.0466 28.3876H18.5559C16.8851 28.3876 15.6795 27.6865 15.116 26.4416L15.188 26.3892L18.4117 24.227C18.9359 23.8731 19.6763 23.9125 20.1415 24.3187L20.3643 24.5022C20.8754 24.9412 21.7009 24.9412 22.212 24.5022L24.9377 22.163C25.4488 21.724 26.2744 21.724 26.7854 22.163L27.8534 23.0803Z" fill="white"/>
<path opacity="0.4" d="M27.1788 19.2146H25.2524C24.4203 19.2146 23.9224 18.7166 23.9224 17.8845V15.9581C23.9224 15.6961 23.9748 15.4733 24.0665 15.2833C24.0599 15.2833 24.0534 15.2833 24.0468 15.2833H18.5561C16.1711 15.2833 14.7493 16.7051 14.7493 19.0901V24.5808C14.7493 25.295 14.8738 25.9175 15.1162 26.4417L15.1883 26.3892L18.4119 24.227C18.9361 23.8732 19.6765 23.9125 20.1417 24.3188L20.3645 24.5022C20.8756 24.9412 21.7012 24.9412 22.2122 24.5022L24.9379 22.1631C25.449 21.7241 26.2746 21.7241 26.7857 22.1631L27.8537 23.0804V19.0901C27.8537 19.0835 27.8537 19.077 27.8537 19.0704C27.6637 19.1622 27.4409 19.2146 27.1788 19.2146Z" fill="white"/>
<path d="M19.3358 20.774C20.197 20.774 20.8952 20.0758 20.8952 19.2145C20.8952 18.3533 20.197 17.6551 19.3358 17.6551C18.4745 17.6551 17.7764 18.3533 17.7764 19.2145C17.7764 20.0758 18.4745 20.774 19.3358 20.774Z" fill="white"/>
<path d="M27.1788 14.628H25.2525C24.4203 14.628 23.9224 15.126 23.9224 15.9581V17.8844C23.9224 18.7166 24.4203 19.2145 25.2525 19.2145H27.1788C28.0109 19.2145 28.5089 18.7166 28.5089 17.8844V15.9581C28.5089 15.126 28.0109 14.628 27.1788 14.628ZM25.8946 18.2776C25.8749 18.2972 25.8291 18.3234 25.7963 18.3234L25.1149 18.4217C25.0952 18.4283 25.069 18.4283 25.0493 18.4283C24.9511 18.4283 24.8659 18.3955 24.8069 18.33C24.7283 18.2514 24.6955 18.14 24.7152 18.022L24.8135 17.3406C24.82 17.3078 24.8397 17.262 24.8593 17.2423L25.9732 16.1284C25.9929 16.1743 26.0125 16.2267 26.0322 16.2791C26.0584 16.3316 26.0846 16.3774 26.1108 16.4233C26.1305 16.4626 26.1567 16.5019 26.1829 16.5281C26.2091 16.5674 26.2353 16.6068 26.2549 16.6264C26.2681 16.6461 26.2746 16.6526 26.2812 16.6592C26.3401 16.7312 26.4056 16.7968 26.4646 16.8426C26.4777 16.8557 26.4908 16.8688 26.4974 16.8688C26.5301 16.8951 26.5695 16.9278 26.5957 16.9475C26.635 16.9737 26.6677 16.9999 26.707 17.0195C26.7529 17.0458 26.8053 17.072 26.8577 17.0982C26.9102 17.1244 26.9626 17.144 27.0084 17.1571L25.8946 18.2776ZM27.4606 16.7116L27.2509 16.9213C27.2378 16.9409 27.2181 16.9475 27.1985 16.9475C27.1919 16.9475 27.1854 16.9475 27.1788 16.9475C26.707 16.8099 26.3336 16.4364 26.196 15.9646C26.1894 15.9384 26.196 15.9122 26.2156 15.8926L26.4319 15.6763C26.7857 15.3225 27.1198 15.3291 27.4671 15.6763C27.644 15.8533 27.7292 16.0236 27.7292 16.194C27.7226 16.3643 27.6375 16.5347 27.4606 16.7116Z" fill="white"/>
</svg>
