<svg width="17" height="19" viewBox="0 0 17 19" fill="none" xmlns="http://www.w3.org/2000/svg">
<path d="M11.527 9.23306C12.3469 8.59254 12.9463 7.71236 13.2416 6.71526C13.5369 5.71817 13.5133 4.65387 13.1743 3.67077C12.8352 2.68767 12.1975 1.83479 11.3501 1.23106C10.5027 0.627324 9.48783 0.302832 8.44702 0.302832C7.40621 0.302832 6.39134 0.627324 5.54394 1.23106C4.69654 1.83479 4.05884 2.68767 3.71978 3.67077C3.38071 4.65387 3.35718 5.71817 3.65246 6.71526C3.94775 7.71236 4.54712 8.59254 5.36702 9.23306C3.81799 9.84883 2.48924 10.9143 1.55224 12.2919C0.615241 13.6695 0.113006 15.296 0.110352 16.9615V17.7941C0.110352 18.0149 0.198149 18.2267 0.354429 18.3828C0.51071 18.5389 0.722671 18.6266 0.943685 18.6266H15.9437C16.1647 18.6266 16.3767 18.5389 16.5329 18.3828C16.6892 18.2267 16.777 18.0149 16.777 17.7941V16.9615C16.7749 15.2968 16.2736 13.6708 15.3379 12.2933C14.4021 10.9158 13.0748 9.84987 11.527 9.23306ZM5.11035 5.30597C5.11035 4.64732 5.30585 4.00347 5.67212 3.45583C6.03839 2.90819 6.55899 2.48135 7.16807 2.2293C7.77716 1.97725 8.44738 1.9113 9.09399 2.03979C9.74059 2.16829 10.3345 2.48545 10.8007 2.95119C11.2669 3.41692 11.5844 4.0103 11.713 4.65629C11.8416 5.30227 11.7756 5.97186 11.5233 6.58037C11.271 7.18888 10.8438 7.70898 10.2956 8.0749C9.74742 8.44082 9.10296 8.63613 8.44369 8.63613C7.55963 8.63613 6.71178 8.28528 6.08666 7.66075C5.46154 7.03622 5.11035 6.18918 5.11035 5.30597ZM1.77702 16.9615C1.77702 15.1951 2.4794 13.501 3.72964 12.252C4.97988 11.0029 6.67558 10.3012 8.44369 10.3012C10.2118 10.3012 11.9075 11.0029 13.1577 12.252C14.408 13.501 15.1104 15.1951 15.1104 16.9615H1.77702Z" fill="#00C48D"/>
</svg>
